<svg width="800" height="800" xml:space="preserve" xmlns="http://www.w3.org/2000/svg">
  <path fill="#b9ec41" style="fill-opacity:1;stroke:none;stroke-width:1;stroke-dasharray:none;stroke-linecap:butt;stroke-dashoffset:0;stroke-linejoin:miter;stroke-miterlimit:4;fill-rule:evenodd;opacity:1" transform="scale(33.33333)" d="M12 1.25C6.063 1.25 1.25 6.063 1.25 12S6.063 22.75 12 22.75 22.75 17.937 22.75 12 17.937 1.25 12 1.25ZM2.75 12a9.25 9.25 0 1 1 18.5 0 9.25 9.25 0 0 1-18.5 0Z"/>
  <path fill="#b9ec41" style="fill-opacity:1;stroke:none;stroke-width:1;stroke-dasharray:none;stroke-linecap:butt;stroke-dashoffset:0;stroke-linejoin:miter;stroke-miterlimit:4;fill-rule:nonzero;opacity:1" transform="scale(33.33333)" d="M16.03 10.03a.75.75 0 1 0-1.06-1.06l-4.47 4.47-1.47-1.47a.75.75 0 0 0-1.06 1.06l2 2a.75.75 0 0 0 1.06 0l5-5Z"/>
</svg>
