<svg width="800" height="800" viewBox="0 0 24 24" fill="none" xmlns="http://www.w3.org/2000/svg">
    <path fill-rule="evenodd" clip-rule="evenodd" d="M15.75 6a3.75 3.75 0 1 0-7.5 0 3.75 3.75 0 0 0 7.5 0ZM12 3.75a2.25 2.25 0 1 1 0 4.5 2.25 2.25 0 0 1 0-4.5Z" fill="#b9ec41" style="fill-opacity:1;stroke-width:.99999;stroke-dasharray:none"/>
    <g>
        <path fill-rule="evenodd" clip-rule="evenodd" d="M9.25 18a3.75 3.75 0 1 0-7.5 0 3.75 3.75 0 0 0 7.5 0ZM5.5 15.75a2.25 2.25 0 1 1 0 4.5 2.25 2.25 0 0 1 0-4.5ZM18.5 14.25a3.75 3.75 0 1 1 0 7.5 3.75 3.75 0 0 1 0-7.5ZM20.75 18a2.25 2.25 0 1 0-4.5 0 2.25 2.25 0 0 0 4.5 0Z" fill="#b9ec41"/>
        <path d="M7.205 7.562a.75.75 0 0 0-.993-1.124A8.73 8.73 0 0 0 3.25 13a.75.75 0 0 0 1.5 0 7.23 7.23 0 0 1 2.455-5.438ZM17.788 6.438a.75.75 0 0 0-.993 1.124A7.23 7.23 0 0 1 19.25 13a.75.75 0 0 0 1.5 0 8.73 8.73 0 0 0-2.962-6.562ZM10.187 20.022a.75.75 0 1 0-.374 1.452c.7.18 1.433.276 2.187.276.754 0 1.487-.096 2.187-.276a.75.75 0 1 0-.374-1.452A7.267 7.267 0 0 1 12 20.25c-.627 0-1.234-.08-1.813-.228Z" fill="#b9ec41"/>
    </g>
</svg>
