<svg xmlns="http://www.w3.org/2000/svg" width="300" height="300" xml:space="preserve">
    <path fill="#b9ec41" style="stroke:none;stroke-width:1;stroke-dasharray:none;stroke-linecap:butt;stroke-dashoffset:0;stroke-linejoin:miter;stroke-miterlimit:4;fill-rule:nonzero;opacity:1" transform="matrix(12.5 0 0 12.5 0 0)" d="M2.75 12A9.25 9.25 0 1 1 12 21.25a.75.75 0 0 0 0 1.5c5.937 0 10.75-4.813 10.75-10.75S17.937 1.25 12 1.25 1.25 6.063 1.25 12a.75.75 0 0 0 1.5 0Z"/>
    <path fill="#b9ec41" style="stroke:none;stroke-width:1;stroke-dasharray:none;stroke-linecap:butt;stroke-dashoffset:0;stroke-linejoin:miter;stroke-miterlimit:4;fill-rule:nonzero;opacity:1" transform="matrix(12.5 0 0 12.5 0 0)" d="M5 12.25a.75.75 0 0 0 0 1.5h4.19l-6.72 6.72a.75.75 0 1 0 1.06 1.06l6.72-6.72V19a.75.75 0 0 0 1.5 0v-6a.75.75 0 0 0-.75-.75H5Z"/>
</svg>
